<svg id="Layer_1" xmlns="http://www.w3.org/2000/svg" viewBox="0 0 109.9 50"><style>.st0{fill:#fff}.st1{fill:none;stroke:#000;stroke-miterlimit:10}</style><path d="M7.8 7.3c-2.7 5.7-4 11.1-4 16.3 0 4.6 1.2 9.8 3.6 15.6l-3.5 1.5C1.3 34.4 0 28.8 0 23.7c0-6 1.5-12 4.4-18l3.4 1.6zm100.7 4.4c0 4.4-4.9 6.7-14.8 6.8l-22.7.3-2.3.5c2.1 1.3 3.2 3.1 3.2 5.5 0 3.4-1.9 5.5-5.7 6.6.5 1.2.7 2.2.7 3.1 0 4-2.4 6.4-7.1 7.1.1.5.1.8.1 1 0 4.6-2.8 6.9-8.4 6.9l-3.4-.2-2.3-1c-2.7.9-5.2 1.3-7.5 1.3-1.7 0-3-.1-3.8-.3-.2 0-.8-.3-1.8-.9-4.1-2.2-8.2-5.6-12.4-10.3h-9.1c-2-4.8-3-9.7-3-14.5 0-5.5 1.1-10.6 3.4-15.4h13.6C31.4 5.1 38.5 2.3 46.6 0L64 1.6 66.6 4l25.9.6c5 .1 8.3.4 9.9.8 4.1 1 6.1 3.1 6.1 6.3zm-35.8 2.1l-9.9-9.2-16-1.4C43.1 4.3 35.9 7 25.2 11.3H13.7c-1.5 4-2.2 7.9-2.2 11.9 0 3.8.7 7.7 2 11.6H22c3.8 4.9 8.2 8.8 13.1 11.7 1.1.2 1.8.3 2.2.3.6 0 2-.1 4.2-.4l-8-3.4c1.1-2.5 2.8-4.7 5.1-6.7l-3.9-1.8c2.3-4 4.9-6.4 7.7-7.3L38 25.3c2.4-4.8 5.5-7.5 9.4-8.3-.9.1-1.8.2-2.5.2-.5 0-1.2 0-2.2-.1l-.1-3.2c.7 0 1.4.1 2 .1 3.5 0 7.2-1.1 11-3.3 3.6 3.8 7.2 5.7 10.8 5.7 2.4-.1 4.5-.9 6.3-2.6zm-16 27.8h-6.1l-8.5-3.8c-1.8 1.1-3.2 2.3-4.1 3.6l10.4 4.9c1.6 0 2.6.1 2.8.1 3.6 0 5.5-1.6 5.5-4.8zm6.8-7c0-.8-.3-1.7-.9-2.7l-9.3.1-6.6-2.9c-3.5.5-5.9 1.8-7.4 4.1l12.3 5.4c3.8.1 5.8.1 6 .1 4-.1 5.9-1.4 5.9-4.1zm5.1-9.8c0-2-1.7-2.9-5.2-2.9h-8.2c-1.9-1.4-3.8-2-5.7-2-3.2 0-5.6 1.4-7.2 4.1l12 4.9 6.7.1c5.1-.1 7.6-1.4 7.6-4.2zm-6.8-6.2c-2.1-.8-4.4-2.2-6.9-4.1-2.2 1.2-4.5 2-6.8 2.4.3 0 .8-.1 1.5-.1 2.2 0 4.4.6 6.6 1.8h5.6zm43.6-6.8c0-2.5-4.1-3.9-12.4-4.1l-23.1-.6 7.3 6.8c-.6.7-1.1 1.2-1.5 1.6l14.4-.1c10.2 0 15.3-1.2 15.3-3.6z"/></svg>