<svg xmlns="http://www.w3.org/2000/svg" viewBox="0 0 329.5 431.4"><style>.st0{fill:#efefef}.st1{fill:#ffba49}.st2{fill:#2b1547}.st3{clip-path:url(#SVGID_2_);fill:#ffba49}.st4{fill:none;stroke:#ffba49;stroke-miterlimit:10}.st5{fill:#fff}.st6{clip-path:url(#SVGID_4_)}.st7{clip-path:url(#SVGID_6_)}.st8{clip-path:url(#SVGID_8_)}.st9{clip-path:url(#SVGID_10_)}</style><path class="st1" d="M320.1 188c-4.2-36-23.2-69.5-52.1-92.1-24.3-19-53.3-28.7-82.9-27.9 0-.1-8.7.5-12.7 1-32.2 4.1-62.1 21.4-82.1 47.4-19 24.9-27.2 55.1-23.1 85.2 3.9 28.5 19.5 54.7 42.8 72 14.9 11.1 31.9 17.8 49.4 19.7V330c-27.1-2.2-53.1-12.6-75.3-30.5-30.1-24.3-49.7-59.9-53.7-97.8-4.2-39.7 7.9-79.1 33.9-111.1 26.9-33 66.1-54.3 107.8-58.5L170 11c-47.2 4.7-91.7 28.9-122.1 66.2C18.2 113.6 4.6 158.6 9.3 204c4.6 43.5 27 84.3 61.5 112.1 26 21 56.8 33.8 88.7 36v68.3h28.6v-69c39.3-4.6 76.2-25.6 101.1-57.1 24.4-30.6 35.4-68.6 30.9-106.3zm-103.6-32.2c13 8.8 22 22.7 24.6 38 2.9 16.8-1.1 33.9-11.5 48.4-10.1 14-24.9 24.1-41.4 28.2v-37.9c8.3-4.4 15-12.1 17.7-20.7 2.5-8.2 1.3-16.4-3.5-23.2-2.8-4-8.3-7.4-14.1-8.6v-33.1c9.8 0 19.6 3 28.2 8.9zm-57 56.7c-6.5-3.7-11.6-10.5-13.5-17.8-3-11.6.7-21.2 4.4-27.2 2.4-3.9 5.6-7.4 9.1-10.4.1 15 .1 34.2 0 55.4zm-71.1-13.8c-3.4-24.4 3.3-49 18.9-69.4 14.2-18.5 34.3-31.6 56.6-37.2-.2 1-.4 2.1-.7 3.3-2.3 11.9-3.2 24.3-3.4 36.6-11.2 5.4-20.9 13.9-27.3 24.3-8.3 13.5-10.8 29-6.9 43.8 3.5 13.5 13 25.4 25.3 31.8 2.9 1.5 5.8 2.6 8.8 3.4v36.5c-13-1.8-25.6-7-36.7-15.3-18.9-13.9-31.5-35-34.6-57.8zm184.3 82c-21 26.4-51.6 43.9-84.5 48.5v-37c23.4-4.5 44.7-18.1 58.7-37.6 13.7-19.1 19.1-42 15.2-64.5-3.7-21-16-40-33.7-52-12.3-8.3-26.2-12.6-40.3-12.6 0 0-1.7-23.4 4.3-36.3 22.3.9 44 8.9 62.5 23.4 24.4 19.1 40.5 47.5 44.1 77.8 3.8 32.1-5.6 64.2-26.3 90.3z" id="Layer_1"/></svg>